<mxfile host="app.diagrams.net" modified="2024-04-11T14:20:44.429Z" agent="Mozilla/5.0 (Macintosh; Intel Mac OS X 10_15_7) AppleWebKit/537.36 (KHTML, like Gecko) Chrome/123.0.0.0 Safari/537.36" etag="BZEwLJoRBtqAOIcqrr65" version="24.2.3" type="device">
  <diagram name="Page-1" id="OPXfmPyaXb70xED9Q-vA">
    <mxGraphModel dx="1195" dy="700" grid="1" gridSize="10" guides="1" tooltips="1" connect="1" arrows="1" fold="1" page="1" pageScale="1" pageWidth="850" pageHeight="1100" math="1" shadow="0">
      <root>
        <mxCell id="0" />
        <mxCell id="1" parent="0" />
        <mxCell id="1GIsbWZzB51lL78MIdPs-7" style="edgeStyle=orthogonalEdgeStyle;rounded=0;orthogonalLoop=1;jettySize=auto;html=1;entryX=0.5;entryY=0;entryDx=0;entryDy=0;" parent="1" source="1GIsbWZzB51lL78MIdPs-3" target="1GIsbWZzB51lL78MIdPs-6" edge="1">
          <mxGeometry relative="1" as="geometry" />
        </mxCell>
        <mxCell id="1GIsbWZzB51lL78MIdPs-3" value="Начало" style="rounded=1;whiteSpace=wrap;html=1;arcSize=50;" parent="1" vertex="1">
          <mxGeometry x="360" y="40" width="120" height="60" as="geometry" />
        </mxCell>
        <mxCell id="1GIsbWZzB51lL78MIdPs-9" style="edgeStyle=orthogonalEdgeStyle;rounded=0;orthogonalLoop=1;jettySize=auto;html=1;entryX=0.5;entryY=0;entryDx=0;entryDy=0;" parent="1" source="1GIsbWZzB51lL78MIdPs-6" target="1GIsbWZzB51lL78MIdPs-8" edge="1">
          <mxGeometry relative="1" as="geometry" />
        </mxCell>
        <mxCell id="1GIsbWZzB51lL78MIdPs-6" value="$$\overline{x} = \frac{a+b}{2}$$" style="rounded=0;whiteSpace=wrap;html=1;" parent="1" vertex="1">
          <mxGeometry x="360" y="120" width="120" height="60" as="geometry" />
        </mxCell>
        <mxCell id="IBX3XWK5gcl-yStgF3h_-17" style="edgeStyle=orthogonalEdgeStyle;rounded=0;orthogonalLoop=1;jettySize=auto;html=1;entryX=0.5;entryY=0;entryDx=0;entryDy=0;" edge="1" parent="1" source="1GIsbWZzB51lL78MIdPs-8" target="1GIsbWZzB51lL78MIdPs-11">
          <mxGeometry relative="1" as="geometry" />
        </mxCell>
        <mxCell id="1GIsbWZzB51lL78MIdPs-8" value="$$\overline{f_1} = f&#39;(\overline{x})$$" style="rounded=0;whiteSpace=wrap;html=1;" parent="1" vertex="1">
          <mxGeometry x="360" y="220" width="120" height="60" as="geometry" />
        </mxCell>
        <mxCell id="IBX3XWK5gcl-yStgF3h_-2" style="edgeStyle=orthogonalEdgeStyle;rounded=0;orthogonalLoop=1;jettySize=auto;html=1;entryX=0.5;entryY=0;entryDx=0;entryDy=0;" edge="1" parent="1" source="1GIsbWZzB51lL78MIdPs-11" target="IBX3XWK5gcl-yStgF3h_-1">
          <mxGeometry relative="1" as="geometry">
            <Array as="points">
              <mxPoint x="520" y="340" />
            </Array>
          </mxGeometry>
        </mxCell>
        <mxCell id="IBX3XWK5gcl-yStgF3h_-14" style="edgeStyle=orthogonalEdgeStyle;rounded=0;orthogonalLoop=1;jettySize=auto;html=1;entryX=0.5;entryY=0;entryDx=0;entryDy=0;" edge="1" parent="1" source="1GIsbWZzB51lL78MIdPs-11" target="IBX3XWK5gcl-yStgF3h_-12">
          <mxGeometry relative="1" as="geometry">
            <Array as="points">
              <mxPoint x="320" y="340" />
            </Array>
          </mxGeometry>
        </mxCell>
        <mxCell id="1GIsbWZzB51lL78MIdPs-11" value="$$\overline{f_1} &amp;lt; \epsilon$$" style="rhombus;whiteSpace=wrap;html=1;" parent="1" vertex="1">
          <mxGeometry x="362.5" y="300" width="115" height="80" as="geometry" />
        </mxCell>
        <mxCell id="IBX3XWK5gcl-yStgF3h_-7" style="edgeStyle=orthogonalEdgeStyle;rounded=0;orthogonalLoop=1;jettySize=auto;html=1;exitX=0.5;exitY=1;exitDx=0;exitDy=0;entryX=0.5;entryY=0;entryDx=0;entryDy=0;" edge="1" parent="1" source="IBX3XWK5gcl-yStgF3h_-1" target="IBX3XWK5gcl-yStgF3h_-6">
          <mxGeometry relative="1" as="geometry" />
        </mxCell>
        <mxCell id="IBX3XWK5gcl-yStgF3h_-1" value="$$\begin{aligned}x^* &amp;amp;= \overline{x} \\ f^* &amp;amp;= f(x^*)\end{aligned}$$" style="rounded=0;whiteSpace=wrap;html=1;" vertex="1" parent="1">
          <mxGeometry x="460" y="360" width="120" height="60" as="geometry" />
        </mxCell>
        <mxCell id="IBX3XWK5gcl-yStgF3h_-3" value="Да" style="text;html=1;align=center;verticalAlign=middle;resizable=0;points=[];autosize=1;strokeColor=none;fillColor=none;" vertex="1" parent="1">
          <mxGeometry x="480" y="308" width="40" height="30" as="geometry" />
        </mxCell>
        <mxCell id="IBX3XWK5gcl-yStgF3h_-9" style="edgeStyle=orthogonalEdgeStyle;rounded=0;orthogonalLoop=1;jettySize=auto;html=1;entryX=0.5;entryY=0;entryDx=0;entryDy=0;" edge="1" parent="1" source="IBX3XWK5gcl-yStgF3h_-6" target="IBX3XWK5gcl-yStgF3h_-8">
          <mxGeometry relative="1" as="geometry" />
        </mxCell>
        <mxCell id="IBX3XWK5gcl-yStgF3h_-6" value="$$x^*, f^*$$" style="shape=parallelogram;perimeter=parallelogramPerimeter;whiteSpace=wrap;html=1;fixedSize=1;" vertex="1" parent="1">
          <mxGeometry x="460" y="440" width="120" height="60" as="geometry" />
        </mxCell>
        <mxCell id="IBX3XWK5gcl-yStgF3h_-8" value="Конец" style="rounded=1;whiteSpace=wrap;html=1;arcSize=50;" vertex="1" parent="1">
          <mxGeometry x="460" y="520" width="120" height="60" as="geometry" />
        </mxCell>
        <mxCell id="IBX3XWK5gcl-yStgF3h_-15" style="edgeStyle=orthogonalEdgeStyle;rounded=0;orthogonalLoop=1;jettySize=auto;html=1;entryX=0.5;entryY=0;entryDx=0;entryDy=0;" edge="1" parent="1" source="IBX3XWK5gcl-yStgF3h_-12" target="IBX3XWK5gcl-yStgF3h_-13">
          <mxGeometry relative="1" as="geometry" />
        </mxCell>
        <mxCell id="IBX3XWK5gcl-yStgF3h_-12" value="$$\overline{f_2} = f&#39;&#39;(\overline{x})$$" style="rounded=0;whiteSpace=wrap;html=1;" vertex="1" parent="1">
          <mxGeometry x="260" y="360" width="120" height="60" as="geometry" />
        </mxCell>
        <mxCell id="IBX3XWK5gcl-yStgF3h_-16" style="edgeStyle=orthogonalEdgeStyle;rounded=0;orthogonalLoop=1;jettySize=auto;html=1;" edge="1" parent="1" source="IBX3XWK5gcl-yStgF3h_-13">
          <mxGeometry relative="1" as="geometry">
            <mxPoint x="420" y="200" as="targetPoint" />
            <Array as="points">
              <mxPoint x="320" y="520" />
              <mxPoint x="240" y="520" />
              <mxPoint x="240" y="200" />
            </Array>
          </mxGeometry>
        </mxCell>
        <mxCell id="IBX3XWK5gcl-yStgF3h_-13" value="$$\overline{x} = \overline{x} - \frac{\overline{f_1}}{\overline{f_2}}$$" style="rounded=0;whiteSpace=wrap;html=1;" vertex="1" parent="1">
          <mxGeometry x="260" y="440" width="120" height="60" as="geometry" />
        </mxCell>
      </root>
    </mxGraphModel>
  </diagram>
</mxfile>
